<mxfile host="app.diagrams.net" agent="Mozilla/5.0 (Windows NT 10.0; Win64; x64) AppleWebKit/537.36 (KHTML, like Gecko) Chrome/128.0.0.0 Safari/537.36 Edg/128.0.0.0" version="24.7.10">
  <diagram name="Pagina-1" id="z6SkzMqpjbRlbP51hDEj">
    <mxGraphModel dx="1426" dy="749" grid="1" gridSize="10" guides="1" tooltips="1" connect="1" arrows="1" fold="1" page="1" pageScale="1" pageWidth="827" pageHeight="1169" math="0" shadow="0">
      <root>
        <mxCell id="0" />
        <mxCell id="1" parent="0" />
        <mxCell id="U3wKA9Zm-R8L4c0VAkq1-6" value="XML" style="edgeStyle=orthogonalEdgeStyle;rounded=0;orthogonalLoop=1;jettySize=auto;html=1;" edge="1" parent="1" source="U3wKA9Zm-R8L4c0VAkq1-1" target="U3wKA9Zm-R8L4c0VAkq1-5">
          <mxGeometry relative="1" as="geometry" />
        </mxCell>
        <mxCell id="U3wKA9Zm-R8L4c0VAkq1-1" value="input" style="sketch=0;outlineConnect=0;fontColor=#232F3E;gradientColor=none;fillColor=#232F3D;strokeColor=none;dashed=0;verticalLabelPosition=bottom;verticalAlign=top;align=center;html=1;fontSize=12;fontStyle=0;aspect=fixed;pointerEvents=1;shape=mxgraph.aws4.folder;" vertex="1" parent="1">
          <mxGeometry x="460" y="230" width="78" height="71" as="geometry" />
        </mxCell>
        <mxCell id="U3wKA9Zm-R8L4c0VAkq1-13" value="JSON" style="edgeStyle=orthogonalEdgeStyle;rounded=0;orthogonalLoop=1;jettySize=auto;html=1;" edge="1" parent="1" source="U3wKA9Zm-R8L4c0VAkq1-5" target="U3wKA9Zm-R8L4c0VAkq1-10">
          <mxGeometry relative="1" as="geometry" />
        </mxCell>
        <mxCell id="U3wKA9Zm-R8L4c0VAkq1-5" value="&lt;div&gt;&lt;font color=&quot;#ffffff&quot;&gt;&lt;br&gt;&lt;/font&gt;&lt;/div&gt;&lt;font color=&quot;#ffffff&quot;&gt;&lt;div&gt;&lt;span style=&quot;background-color: initial;&quot;&gt;CONVERTER&lt;/span&gt;&lt;br&gt;&lt;/div&gt;&lt;/font&gt;&lt;div&gt;&lt;br&gt;&lt;/div&gt;" style="whiteSpace=wrap;html=1;verticalAlign=top;fillColor=#232F3D;strokeColor=none;fontColor=#232F3E;sketch=0;gradientColor=none;dashed=0;fontStyle=0;pointerEvents=1;align=center;" vertex="1" parent="1">
          <mxGeometry x="439" y="460" width="120" height="60" as="geometry" />
        </mxCell>
        <mxCell id="U3wKA9Zm-R8L4c0VAkq1-11" value="" style="edgeStyle=orthogonalEdgeStyle;rounded=0;orthogonalLoop=1;jettySize=auto;html=1;" edge="1" parent="1" source="U3wKA9Zm-R8L4c0VAkq1-8" target="U3wKA9Zm-R8L4c0VAkq1-10">
          <mxGeometry relative="1" as="geometry" />
        </mxCell>
        <mxCell id="U3wKA9Zm-R8L4c0VAkq1-12" value="" style="edgeStyle=orthogonalEdgeStyle;rounded=0;orthogonalLoop=1;jettySize=auto;html=1;" edge="1" parent="1" source="U3wKA9Zm-R8L4c0VAkq1-8" target="U3wKA9Zm-R8L4c0VAkq1-1">
          <mxGeometry relative="1" as="geometry" />
        </mxCell>
        <mxCell id="U3wKA9Zm-R8L4c0VAkq1-8" value="workflow&lt;div&gt;&lt;br&gt;&lt;/div&gt;" style="sketch=0;outlineConnect=0;fontColor=#232F3E;gradientColor=none;fillColor=#232F3D;strokeColor=none;dashed=0;verticalLabelPosition=bottom;verticalAlign=top;align=center;html=1;fontSize=12;fontStyle=0;aspect=fixed;pointerEvents=1;shape=mxgraph.aws4.folder;" vertex="1" parent="1">
          <mxGeometry x="320" y="150" width="78" height="71" as="geometry" />
        </mxCell>
        <mxCell id="U3wKA9Zm-R8L4c0VAkq1-10" value="output" style="sketch=0;outlineConnect=0;fontColor=#232F3E;gradientColor=none;fillColor=#232F3D;strokeColor=none;dashed=0;verticalLabelPosition=bottom;verticalAlign=top;align=center;html=1;fontSize=12;fontStyle=0;aspect=fixed;pointerEvents=1;shape=mxgraph.aws4.folder;" vertex="1" parent="1">
          <mxGeometry x="200" y="221" width="78" height="71" as="geometry" />
        </mxCell>
      </root>
    </mxGraphModel>
  </diagram>
</mxfile>
